<svg width="53" height="53" viewBox="0 0 53 53" fill="none" xmlns="http://www.w3.org/2000/svg">
<circle cx="26.5" cy="26.5" r="26.5" fill="#4C5AA4"/>
<g clip-path="url(#clip0_15_261)">
<path d="M31.4761 38.2516C31.3799 38.0888 31.2393 38 31.1224 37.9527C31.1224 37.9409 31.1209 37.9275 31.1194 37.9142C31.0839 37.5413 30.9463 37.4983 30.2863 37.2897L29.8615 37.152C29.7698 37.121 29.5596 37.0544 29.314 36.9774C28.9588 36.8649 28.5311 36.7273 28.2914 36.6489C28.1197 36.5823 27.6373 36.3839 27.4597 36.2626C27.251 36.119 26.9121 35.9178 26.8396 35.8748C26.7123 35.7727 26.6013 35.6869 26.4652 35.6528C26.4282 35.644 26.3838 35.6321 26.3335 35.6218C26.1485 35.5774 25.8732 35.5123 25.7238 35.4457C25.6705 35.4072 25.4899 35.2681 25.3375 35.0875C25.1762 34.8951 25.1422 34.8492 25.1392 34.8448C25.1392 34.8418 25.1362 34.8404 25.1348 34.8389C25.1037 34.7915 25.0682 34.7382 25.0312 34.685C25.1348 34.5281 25.1954 34.3342 25.1422 34.1862C25.1052 34.0826 25.0149 34.0131 24.9068 34.0027C24.7515 33.9894 24.6257 34.0071 24.5265 34.0427C24.4052 33.757 24.1403 33.5913 23.8842 33.5469C23.6415 33.504 23.5542 33.6164 23.5231 33.6875C23.4862 33.7733 23.4995 33.8961 23.6105 33.9761C23.6549 34.0086 23.7141 34.0575 23.7585 34.1122L23.0984 34.3401C22.8661 34.3964 22.4517 34.4807 22.3111 34.4778C22.2208 34.4748 22.1424 34.5103 22.0862 34.5725C21.9767 34.6953 22.0003 34.867 22.0255 35.049C22.0299 35.0831 22.0344 35.1171 22.0388 35.1526C22.0625 35.3569 22.243 35.4131 22.3392 35.4427C22.4473 35.4767 22.5967 35.5226 22.7788 35.7165C22.8602 35.8038 23.0407 35.9163 23.2494 36.0406C23.2745 36.0554 23.2967 36.0687 23.3145 36.0791L23.3855 36.2552C23.4714 36.5023 23.4743 36.6074 23.4743 36.6341C23.4699 36.7584 23.4654 36.9537 23.4773 37.2157C23.4921 37.5131 23.4773 37.8165 23.4669 38.0607C23.4521 38.4056 23.4477 38.5299 23.4936 38.6261C23.5202 38.6793 23.5483 38.7075 23.6652 38.777L23.569 39.1189C23.5646 39.1367 23.5616 39.1544 23.5601 39.1722L23.5527 39.3956L23.1976 40.8282L22.9815 41.2115C22.9268 41.3092 22.9534 41.4306 23.0422 41.4987C23.0599 41.512 23.0792 41.5223 23.0984 41.5297L23.5542 41.697C23.6682 41.7384 23.7954 41.6807 23.8384 41.5667L24.3534 40.2126L24.5295 39.7331L24.6301 39.5836L24.7381 39.554C24.7248 39.5777 24.7159 39.6028 24.7115 39.6295L24.4747 41.068L24.2749 41.4513C24.2453 41.5075 24.2424 41.5741 24.2646 41.6333C24.2868 41.6925 24.3356 41.7399 24.3948 41.7621L24.7618 41.8968C24.8758 41.9382 25.003 41.8805 25.046 41.7665L25.558 40.4109L25.7356 39.9269L25.8732 39.7005C25.8821 39.6857 25.8895 39.6709 25.8939 39.6546L26.0182 39.2743C26.2476 39.3468 26.3468 39.4045 26.4282 39.4519C26.4918 39.4889 26.5569 39.5259 26.6502 39.554C26.8721 39.6176 27.0098 39.6576 27.1001 39.6798C27.1267 39.7789 27.18 39.921 27.2836 40.0705L27.2762 40.0927C27.2184 40.2629 27.3102 40.4464 27.4789 40.5041C27.5411 40.5248 27.6062 40.5278 27.6683 40.51C27.6728 40.5204 27.6757 40.5308 27.6816 40.5396C27.7201 40.6181 27.7867 40.6758 27.8681 40.7039C27.8829 40.7098 27.8992 40.7128 27.9155 40.7158C27.9643 40.7498 28.0205 40.7676 28.0812 40.769C28.1049 40.769 28.1301 40.7676 28.1537 40.7631C28.0028 41.25 27.8089 41.8568 27.655 42.3319C27.4567 42.4295 27.3265 42.6486 27.2954 42.7359C27.2762 42.7921 27.2806 42.8528 27.3058 42.9061C27.3324 42.9594 27.3783 42.9993 27.433 43.0186L27.88 43.171C27.9673 43.2006 28.062 43.174 28.1212 43.1044L28.3506 42.8321C28.3654 42.8143 28.3772 42.7951 28.3861 42.7744L29.0254 41.2426C29.0298 41.2323 29.0328 41.2219 29.0358 41.2101C29.0505 41.253 29.0639 41.29 29.0713 41.3137C29.0328 41.472 28.8226 42.0818 28.6155 42.6515C28.5415 42.6856 28.4542 42.7463 28.3713 42.8572C28.315 42.9283 28.2706 43.0023 28.2499 43.0615C28.2307 43.1177 28.2351 43.1784 28.2603 43.2317C28.2854 43.285 28.3328 43.3249 28.3876 43.3441L28.8345 43.4966C28.8582 43.504 28.8818 43.5084 28.9055 43.5084C28.9692 43.5084 29.0328 43.4803 29.0757 43.43L29.3051 43.1562C29.3199 43.1384 29.3332 43.1177 29.3421 43.0955L29.9918 41.4735C29.9992 41.4543 30.0051 41.4335 30.0066 41.4128L30.1013 40.4612C30.233 40.3014 30.64 39.7997 30.8915 39.4075C30.8856 39.8589 30.8619 40.5441 30.7154 41.1553C30.6888 41.1834 30.6651 41.2145 30.6444 41.2426C30.6296 41.2633 30.6133 41.2841 30.5956 41.3048C30.4594 41.475 30.156 41.8598 30.5467 42.2682C30.5985 42.3585 30.6888 42.3999 30.7583 42.4073C30.856 42.4192 30.9507 42.3659 30.9892 42.2756C31.0173 42.212 31.0129 42.141 30.9818 42.0832C31.0839 41.8894 31.2571 41.512 31.1816 41.29C31.1786 41.2826 31.1757 41.2737 31.1727 41.2663C31.374 40.4449 31.3621 40.1504 31.3547 39.9121C31.3473 39.7212 31.3429 39.594 31.4865 39.1736C31.6152 38.7963 31.6093 38.4855 31.4702 38.2516H31.4761Z" fill="#F8F4B7"/>
<path d="M32.1407 24.799C28.3848 25.1024 24.6377 25.1054 20.8565 24.799C20.5976 25.7565 20.3386 26.7126 20.0826 27.6686C18.6515 33.0127 17.2205 38.3568 15.7894 43.7009C15.7583 43.8193 15.7272 43.9392 15.6843 44.0532C15.5393 44.4528 15.1501 44.6673 14.7801 44.5593C14.3835 44.4424 14.1541 44.0502 14.2636 43.6299C14.53 42.6087 14.8082 41.5891 15.082 40.5694C16.4864 35.3274 17.8923 30.0854 19.2967 24.8419C19.3115 24.7842 19.3189 24.725 19.3323 24.6555C18.3245 24.4971 17.3255 24.3654 16.3384 24.1804C13.9913 23.7394 11.6635 23.2169 9.57828 21.9782C9.10916 21.6985 8.66667 21.3404 8.29226 20.9423C7.31553 19.9078 7.34217 18.6128 8.32334 17.5724C9.19943 16.643 10.3271 16.125 11.4962 15.6825C13.4008 14.9603 15.3824 14.5429 17.3862 14.2188C17.5949 14.1848 17.6689 14.1064 17.7162 13.908C17.8198 13.467 17.9426 13.0275 18.0877 12.5983C18.283 12.0255 18.6574 11.8154 19.1118 11.9871C19.5498 12.1528 19.643 12.5332 19.495 13.1C19.3041 13.8326 19.1858 14.5829 19.0304 15.3244C18.9519 15.6943 19.1236 15.9341 19.4433 16.0451C20.2631 16.3292 21.0756 16.6815 21.9221 16.8339C25.1601 17.4155 28.407 17.4244 31.6317 16.7111C32.2961 16.5646 32.931 16.2819 33.5718 16.0421C33.8929 15.9223 34.0024 15.684 33.9847 15.3155C33.813 11.7222 30.9598 8.68086 27.3962 8.28423C26.1708 8.14808 24.9958 8.29311 23.8459 8.71638C23.3428 8.90137 22.921 8.74746 22.7656 8.34047C22.5999 7.90241 22.8115 7.52354 23.3383 7.32079C28.4158 5.35837 34.1623 8.49587 35.284 13.8503C35.3358 14.099 35.4202 14.1848 35.6732 14.2262C37.9182 14.5977 40.141 15.0668 42.2425 15.9785C43.0697 16.3381 43.86 16.7644 44.5141 17.3978C45.7454 18.5906 45.735 20.0232 44.4816 21.1998C43.4427 22.1751 42.1552 22.7004 40.8336 23.1459C38.6819 23.8711 36.462 24.281 34.2141 24.5607C34.0439 24.5815 33.8752 24.6155 33.6621 24.651C33.8485 25.3569 34.0291 26.051 34.2155 26.7437C35.7043 32.2935 37.1946 37.8433 38.6848 43.3946C38.7041 43.4656 38.7203 43.5381 38.7381 43.6092C38.8432 44.0546 38.6241 44.4528 38.2113 44.5638C37.828 44.6673 37.4328 44.4365 37.307 44.0028C37.1191 43.3546 36.9489 42.702 36.7743 42.0508C35.2456 36.3515 33.7183 30.6522 32.1911 24.9529C32.1792 24.907 32.1629 24.8626 32.1422 24.799H32.1407ZM26.199 23.581C28.2412 23.4715 29.9609 23.3945 31.679 23.285C33.7657 23.1518 35.8301 22.8529 37.8679 22.3896C39.4766 22.0241 41.0675 21.5949 42.5074 20.7617C42.9262 20.519 43.3169 20.1993 43.6528 19.8486C44.0198 19.4667 44.0124 19.0805 43.6321 18.7075C43.2681 18.3509 42.8596 18.012 42.4142 17.7678C40.3601 16.64 38.0914 16.1946 35.8183 15.7802C35.6288 15.7461 35.5548 15.8261 35.469 16.0007C35.3003 16.3455 35.136 16.7392 34.8534 16.9686C34.442 17.3031 33.9506 17.5709 33.4534 17.7618C31.75 18.4189 29.9505 18.6247 28.1465 18.712C25.8956 18.82 23.6461 18.7549 21.4263 18.2902C20.3534 18.0667 19.2923 17.8033 18.3718 17.1684C17.9574 16.8827 17.6171 16.529 17.5268 16.0081C17.4809 15.7387 17.3033 15.7461 17.1154 15.7905C15.7539 16.1043 14.382 16.3825 13.0353 16.7525C11.8854 17.0692 10.7726 17.5162 9.81507 18.2606C8.86942 18.9946 8.85314 19.6266 9.81803 20.3059C10.4055 20.7203 11.0523 21.0755 11.7182 21.3463C14.2296 22.366 16.8786 22.844 19.5557 23.1119C21.8658 23.3427 24.1907 23.4434 26.196 23.5795L26.199 23.581Z" fill="#F8F4B7"/>
<path d="M21.4084 9.87654C21.4158 10.288 21.0769 10.6432 20.6759 10.6432C20.2911 10.6432 19.9448 10.3028 19.9315 9.91502C19.9182 9.5036 20.2526 9.16617 20.6759 9.16617C21.0917 9.16617 21.4025 9.46808 21.4099 9.87802L21.4084 9.87654Z" fill="#F8F4B7"/>
<path d="M37.0464 20.1725C36.6321 20.177 36.2621 19.8174 36.2576 19.4074C36.2547 19.0004 36.6217 18.6275 37.0316 18.6245C37.4416 18.6201 37.813 18.9841 37.8189 19.3941C37.8249 19.8026 37.4623 20.1681 37.045 20.1725H37.0464Z" fill="#F8F4B7"/>
<path d="M15.9506 18.6245C16.359 18.6156 16.7335 18.9753 16.7438 19.3867C16.7542 19.7952 16.3946 20.1651 15.9772 20.1725C15.5614 20.1799 15.1914 19.8277 15.1825 19.4148C15.1737 19.0108 15.5407 18.6334 15.9506 18.6245Z" fill="#F8F4B7"/>
<path d="M21.1702 20.0112C21.6023 20.0186 21.9442 20.3635 21.9338 20.7838C21.9249 21.1937 21.5549 21.5489 21.1435 21.543C20.7247 21.5356 20.3755 21.176 20.3829 20.7586C20.3903 20.3324 20.7366 20.0053 21.1717 20.0127L21.1702 20.0112Z" fill="#F8F4B7"/>
<path d="M31.8476 20.0112C32.2797 20.0112 32.623 20.3472 32.6201 20.7719C32.6186 21.1922 32.2649 21.5445 31.8461 21.543C31.4347 21.543 31.0692 21.1789 31.0692 20.7704C31.0692 20.3487 31.414 20.0127 31.8476 20.0127V20.0112Z" fill="#F8F4B7"/>
<path d="M26.5496 20.3768C26.9832 20.399 27.2836 20.7379 27.2629 21.1849C27.2437 21.6052 26.8722 21.9381 26.4549 21.91C26.0316 21.8819 25.7223 21.5252 25.7416 21.0901C25.7608 20.6595 26.1056 20.3561 26.5496 20.3783V20.3768Z" fill="#F8F4B7"/>
</g>
<defs>
<clipPath id="clip0_15_261">
<rect width="37.8571" height="37.8571" fill="white" transform="translate(7.57141 6.73016)"/>
</clipPath>
</defs>
</svg>
