<svg width="25" height="34" viewBox="0 0 25 34" fill="none" xmlns="http://www.w3.org/2000/svg">
<g clip-path="url(#clip0_7_241)">
<path d="M25 12.5C25 19.4042 12.5 33.5069 12.5 33.5069C12.5 33.5069 0 19.4042 0 12.5C0 5.59582 5.59582 0 12.5 0C19.4042 0 25 5.59582 25 12.5Z" fill="#EC6480"/>
<path d="M3.92206 8.56456C3.92206 8.30267 3.90669 8.03938 3.92485 7.77748C3.9584 7.30105 4.20857 7.04193 4.68935 7.00293C8.09255 6.72849 10.2672 8.54367 10.9269 11.5527C11.0555 12.1364 11.0457 12.7535 11.0583 13.3554C11.0681 13.8206 10.9772 13.9209 10.5202 14.0059C6.97446 14.6593 4.03387 12.4833 3.91507 8.92676C3.91088 8.80557 3.91507 8.68437 3.91507 8.56317C3.91787 8.56317 3.91926 8.56317 3.92206 8.56317V8.56456Z" fill="black"/>
<path d="M20.9181 8.56456C20.9181 8.30267 20.9334 8.03938 20.9153 7.77748C20.8817 7.30105 20.6315 7.04193 20.1508 7.00293C16.7476 6.72849 14.5729 8.54367 13.9132 11.5527C13.7846 12.1364 13.7944 12.7535 13.7818 13.3554C13.772 13.8206 13.8629 13.9209 14.3199 14.0059C17.8657 14.6593 20.8062 12.4833 20.925 8.92676C20.9292 8.80557 20.925 8.68437 20.925 8.56317C20.9222 8.56317 20.9208 8.56317 20.9181 8.56317V8.56456Z" fill="black"/>
</g>
<defs>
<clipPath id="clip0_7_241">
<rect width="25" height="33.5069" fill="white"/>
</clipPath>
</defs>
</svg>
